<svg xmlns="http://www.w3.org/2000/svg" viewBox="0 0 128 128">
  <!-- Row 1 -->
  <rect x="4" y="4" width="22" height="22" rx="3" fill="#538D4E"/>
  <rect x="29" y="4" width="22" height="22" rx="3" fill="#3A3A3C"/>
  <rect x="54" y="4" width="22" height="22" rx="3" fill="#3A3A3C"/>
  <rect x="79" y="4" width="22" height="22" rx="3" fill="#3A3A3C"/>
  <rect x="104" y="4" width="22" height="22" rx="3" fill="#538D4E"/>

  <!-- Row 2 -->
  <rect x="4" y="29" width="22" height="22" rx="3" fill="#538D4E"/>
  <rect x="29" y="29" width="22" height="22" rx="3" fill="#B59F3B"/>
  <rect x="54" y="29" width="22" height="22" rx="3" fill="#3A3A3C"/>
  <rect x="79" y="29" width="22" height="22" rx="3" fill="#B59F3B"/>
  <rect x="104" y="29" width="22" height="22" rx="3" fill="#538D4E"/>

  <!-- Row 3 -->
  <rect x="4" y="54" width="22" height="22" rx="3" fill="#538D4E"/>
  <rect x="29" y="54" width="22" height="22" rx="3" fill="#B59F3B"/>
  <rect x="54" y="54" width="22" height="22" rx="3" fill="#538D4E"/>
  <rect x="79" y="54" width="22" height="22" rx="3" fill="#B59F3B"/>
  <rect x="104" y="54" width="22" height="22" rx="3" fill="#538D4E"/>

  <!-- Row 4 -->
  <rect x="4" y="79" width="22" height="22" rx="3" fill="#538D4E"/>
  <rect x="29" y="79" width="22" height="22" rx="3" fill="#538D4E"/>
  <rect x="54" y="79" width="22" height="22" rx="3" fill="#B59F3B"/>
  <rect x="79" y="79" width="22" height="22" rx="3" fill="#538D4E"/>
  <rect x="104" y="79" width="22" height="22" rx="3" fill="#538D4E"/>

  <!-- Row 5 -->
  <rect x="4" y="104" width="22" height="22" rx="3" fill="#3A3A3C"/>
  <rect x="29" y="104" width="22" height="22" rx="3" fill="#538D4E"/>
  <rect x="54" y="104" width="22" height="22" rx="3" fill="#3A3A3C"/>
  <rect x="79" y="104" width="22" height="22" rx="3" fill="#538D4E"/>
  <rect x="104" y="104" width="22" height="22" rx="3" fill="#3A3A3C"/>
</svg>
